<svg>
    <symbol id="icon-search"  viewBox="0 0 17 18"  xmlns="http://www.w3.org/2000/svg">
        <path d="M11.9276 12.7748L15.37 17.0644" stroke="white" stroke-linecap="round"/>
        <circle cx="8.48533" cy="8.48526" r="5.5" transform="rotate(-38.7469 8.48533 8.48526)" stroke="white"/>
    </symbol>
    <symbol id="icon-watch"  viewBox="0 0 12 12"  xmlns="http://www.w3.org/2000/svg">
        <circle cx="6" cy="6" r="5.5" stroke="#696969"/>
        <path d="M4 6H6.5V2.5" stroke="#696969"/>
    </symbol>
    <symbol id="icon-like"  viewBox="0 0 16 14"  xmlns="http://www.w3.org/2000/svg">
        <path d="M8.34372 2.25572H8.36529C9.29718 1.44175 11.7563 0.165765 13.9565 1.76734C17.3111 4.20921 14.2458 9.5 8.36529 13H8.34372M8.34378 2.25572H8.32221C7.39032 1.44175 4.93121 0.165765 2.73102 1.76734C-0.623552 4.20921 2.44172 9.5 8.32221 13H8.34378"/>
    </symbol>
    <symbol id="icon-note"  viewBox="0 0 20 19"  xmlns="http://www.w3.org/2000/svg">
        <path d="M8 16V1.9697L19 1V13" stroke="#4E4E4E"/>
        <ellipse cx="4.5" cy="16" rx="3.5" ry="2" stroke="#4E4E4E"/>
        <ellipse cx="15.5" cy="13" rx="3.5" ry="2" stroke="#4E4E4E"/>
    </symbol>
    <symbol id="icon-volume" fill="none" viewBox="0 0 14 18" xmlns="http://www.w3.org/2000/svg">
        <mask id="path-1-inside-1_2985_507" fill="white">
        <path fill-rule="evenodd" clip-rule="evenodd" d="M8 0L3 5H0V13H3L8 18V0Z"/>
        </mask>
        <path d="M3 5V6H3.41421L3.70711 5.70711L3 5ZM8 0H9V-2.41421L7.29289 -0.707107L8 0ZM0 5V4H-1V5H0ZM0 13H-1V14H0V13ZM3 13L3.70711 12.2929L3.41421 12H3V13ZM8 18L7.29289 18.7071L9 20.4142V18H8ZM3.70711 5.70711L8.70711 0.707107L7.29289 -0.707107L2.29289 4.29289L3.70711 5.70711ZM0 6H3V4H0V6ZM1 13V5H-1V13H1ZM3 12H0V14H3V12ZM8.70711 17.2929L3.70711 12.2929L2.29289 13.7071L7.29289 18.7071L8.70711 17.2929ZM7 0V18H9V0H7Z" fill="white" mask="url(#path-1-inside-1_2985_507)"/>
        <path d="M11 13C12.1046 13 13 11.2091 13 9C13 6.79086 12.1046 5 11 5" stroke="white"/>
    </symbol>
    <symbol id="icon-dislike"  viewBox="0 0 16 15"  xmlns="http://www.w3.org/2000/svg">
        <path d="M8.34372 3.25572H8.36529C9.29718 2.44175 11.7563 1.16576 13.9565 2.76734C17.3111 5.20921 14.2458 10.5 8.36529 14H8.34372M8.34378 3.25572H8.32221C7.39032 2.44175 4.93121 1.16576 2.73102 2.76734C-0.623552 5.20921 2.44172 10.5 8.32221 14H8.34378" />
        <path d="M1 1L15 13.5" />
    </symbol>
    <symbol id="icon-prev" viewBox="0 0 16 14"  xmlns="http://www.w3.org/2000/svg">
        <path d="M1 2V12.5" stroke="white"/>
        <path d="M3 7L12.75 0.937823L12.75 13.0622L3 7Z" fill="#D9D9D9"/>
    </symbol>
    <symbol id="icon-play" viewBox="0 0 15 20"  xmlns="http://www.w3.org/2000/svg">
        <path d="M15 10L-1.01012e-06 0.47372L-1.84293e-06 19.5263L15 10Z" fill="#D9D9D9"/>
    </symbol>
    <symbol id="icon-pause" viewBox="0 0 15 19" fill="none" xmlns="http://www.w3.org/2000/svg">
        <rect width="5" height="19" fill="#D9D9D9"/>
        <rect x="10" width="5" height="19" fill="#D9D9D9"/>
    </symbol>
    <symbol id="icon-next" viewBox="0 0 16 14"  xmlns="http://www.w3.org/2000/svg">
        <path d="M15 2V12.5" stroke="white"/>
        <path d="M13 7L3.25 0.937823L3.25 13.0622L13 7Z" fill="#D9D9D9"/>
    </symbol>
    <symbol id="icon-repeat" viewBox="0 0 20 18"  xmlns="http://www.w3.org/2000/svg">
        <path d="M10 3L5 0.113249V5.88675L10 3ZM7 14.5C3.96243 14.5 1.5 12.0376 1.5 9H0.5C0.5 12.5899 3.41015 15.5 7 15.5V14.5ZM1.5 9C1.5 5.96243 3.96243 3.5 7 3.5V2.5C3.41015 2.5 0.5 5.41015 0.5 9H1.5Z" fill="#696969"/>
        <path d="M10 15L15 17.8868V12.1132L10 15ZM13 3.5C16.0376 3.5 18.5 5.96243 18.5 9H19.5C19.5 5.41015 16.5899 2.5 13 2.5V3.5ZM18.5 9C18.5 12.0376 16.0376 14.5 13 14.5V15.5C16.5899 15.5 19.5 12.5899 19.5 9H18.5Z" fill="#696969"/>
    </symbol>
    <symbol id="icon-repeat-active" viewBox="0 0 20 18" fill="none" xmlns="http://www.w3.org/2000/svg">
        <path d="M10 3L5 0.113249V5.88675L10 3ZM7 14.5C3.96243 14.5 1.5 12.0376 1.5 9H0.5C0.5 12.5899 3.41015 15.5 7 15.5V14.5ZM1.5 9C1.5 5.96243 3.96243 3.5 7 3.5V2.5C3.41015 2.5 0.5 5.41015 0.5 9H1.5Z" fill="white"/>
        <path d="M10 15L15 17.8868V12.1132L10 15ZM13 3.5C16.0376 3.5 18.5 5.96243 18.5 9H19.5C19.5 5.41015 16.5899 2.5 13 2.5V3.5ZM18.5 9C18.5 12.0376 16.0376 14.5 13 14.5V15.5C16.5899 15.5 19.5 12.5899 19.5 9H18.5Z" fill="white"/>
    </symbol>
    <symbol id="icon-shuffle" viewBox="0 0 20 18"  xmlns="http://www.w3.org/2000/svg">
        <path d="M19.5 15L14.5 12.1132V17.8868L19.5 15ZM10.1632 12.0833L9.70863 12.2916L10.1632 12.0833ZM7.33683 5.91673L6.8823 6.12505L7.33683 5.91673ZM0.5 3.5H2.79151V2.5H0.5V3.5ZM6.8823 6.12505L9.70863 12.2916L10.6177 11.8749L7.79137 5.7084L6.8823 6.12505ZM14.7085 15.5H15V14.5H14.7085V15.5ZM9.70863 12.2916C10.6047 14.2466 12.5579 15.5 14.7085 15.5V14.5C12.949 14.5 11.3508 13.4745 10.6177 11.8749L9.70863 12.2916ZM2.79151 3.5C4.55105 3.5 6.14918 4.52552 6.8823 6.12505L7.79137 5.7084C6.89533 3.75341 4.94205 2.5 2.79151 2.5V3.5Z" fill="#696969"/>
        <path d="M19.5 3L14.5 5.88675V0.113249L19.5 3ZM10.1632 5.91673L9.70863 5.7084L10.1632 5.91673ZM7.33683 12.0833L6.8823 11.8749L7.33683 12.0833ZM0.5 14.5H2.79151V15.5H0.5V14.5ZM6.8823 11.8749L9.70863 5.7084L10.6177 6.12505L7.79137 12.2916L6.8823 11.8749ZM14.7085 2.5H15V3.5H14.7085V2.5ZM9.70863 5.7084C10.6047 3.75341 12.5579 2.5 14.7085 2.5V3.5C12.949 3.5 11.3508 4.52552 10.6177 6.12505L9.70863 5.7084ZM2.79151 14.5C4.55105 14.5 6.14918 13.4745 6.8823 11.8749L7.79137 12.2916C6.89533 14.2466 4.94205 15.5 2.79151 15.5V14.5Z" fill="#696969"/>
    </symbol>
    <symbol id="icon-shuffle-active" viewBox="0 0 615 528" fill="none" xmlns="http://www.w3.org/2000/svg">
        <rect width="615" height="528" rx="30" fill="#181818"/>
        <path d="M71.416 67V59H69.384L65.72 65.384V59H64.184V67H66.216L69.88 60.616V67H71.416ZM79.4578 62.184H81.1218C80.9298 60.184 79.2818 58.84 77.1698 58.84C74.8818 58.84 73.1858 60.552 73.1858 63C73.1858 65.448 74.8818 67.16 77.1698 67.16C79.3458 67.16 81.0258 65.752 81.1538 63.64H79.4898C79.3298 64.968 78.3378 65.688 77.1698 65.688C75.8098 65.688 74.7858 64.616 74.7858 63C74.7858 61.384 75.8098 60.312 77.1698 60.312C78.3218 60.312 79.2978 60.968 79.4578 62.184ZM84.534 67V60.472H88.15V67H89.75V59H82.934V67H84.534ZM95.5931 67.16C97.9131 67.16 99.6411 65.448 99.6411 63C99.6411 60.552 97.9131 58.84 95.5931 58.84C93.2731 58.84 91.5451 60.552 91.5451 63C91.5451 65.448 93.2731 67.16 95.5931 67.16ZM95.5931 65.688C94.2011 65.688 93.1451 64.616 93.1451 63C93.1451 61.384 94.2011 60.312 95.5931 60.312C96.9851 60.312 98.0411 61.384 98.0411 63C98.0411 64.616 96.9851 65.688 95.5931 65.688ZM108.04 67V59H102.12C102.104 62.6 101.992 63.976 101.8 64.664C101.64 65.272 101.288 65.528 100.856 65.528H100.728V67H101.016C102.296 67 103 66.472 103.336 64.472C103.464 63.608 103.544 62.344 103.576 60.472H106.44V67H108.04ZM112.003 67V63.688H115.843V67H117.443V59H115.843V62.232H112.003V59H110.403V67H112.003ZM127.041 67V59H125.009L121.345 65.384V59H119.809V67H121.841L125.505 60.616V67H127.041ZM132.699 67V60.472H135.291V59H128.507V60.472H131.099V67H132.699ZM143.901 63.544C143.917 63.368 143.933 63.192 143.933 63C143.933 60.552 142.269 58.84 139.997 58.84C137.725 58.84 136.061 60.552 136.061 63C136.061 65.448 137.725 67.16 139.997 67.16C141.837 67.16 143.229 66.248 143.725 64.6H141.997C141.677 65.32 141.037 65.752 140.061 65.752C138.717 65.752 137.821 64.936 137.629 63.544H143.901ZM139.997 60.248C141.277 60.248 142.157 61.048 142.349 62.392H137.645C137.837 61.048 138.701 60.248 139.997 60.248ZM152.337 67V59H146.417C146.401 62.6 146.289 63.976 146.097 64.664C145.937 65.272 145.585 65.528 145.153 65.528H145.025V67H145.313C146.593 67 147.297 66.472 147.633 64.472C147.761 63.608 147.841 62.344 147.873 60.472H150.737V67H152.337ZM156.3 67V63.688H157.644C157.932 65.768 159.548 67.16 161.628 67.16C163.932 67.16 165.66 65.448 165.66 63C165.66 60.552 163.932 58.84 161.628 58.84C159.58 58.84 157.98 60.2 157.66 62.232H156.3V59H154.7V67H156.3ZM161.628 65.688C160.236 65.688 159.196 64.616 159.196 63C159.196 61.384 160.236 60.312 161.628 60.312C163.02 60.312 164.06 61.384 164.06 63C164.06 64.616 163.02 65.688 161.628 65.688Z" fill="white"/>
        <rect x="43.5" y="43.5" width="143" height="38" rx="19" stroke="white"/>
        <path d="M299 286L313 298.5" stroke="#ACACAC"/>
        <path d="M306.344 288.256H306.366C307.297 287.442 309.757 286.166 311.957 287.767C315.311 290.209 312.246 295.5 306.366 299H306.344M306.344 288.256H306.322C305.391 287.442 302.931 286.166 300.731 287.767C297.377 290.209 300.442 295.5 306.322 299H306.344" stroke="#ACACAC"/>
        <path d="M88.784 469V463.128L92.496 469H94.416L90.864 463.576C92.64 463.48 94.048 462.504 94.048 460.52V460.04C94.048 458.056 92.64 457 90.704 457H87.184V469H88.784ZM90.544 458.472C91.712 458.472 92.448 458.936 92.448 460.2V460.36C92.448 461.704 91.712 462.248 90.544 462.248H88.784V458.472H90.544ZM103.089 465.544C103.105 465.368 103.121 465.192 103.121 465C103.121 462.552 101.457 460.84 99.1846 460.84C96.9126 460.84 95.2486 462.552 95.2486 465C95.2486 467.448 96.9126 469.16 99.1846 469.16C101.025 469.16 102.417 468.248 102.913 466.6H101.185C100.865 467.32 100.225 467.752 99.2486 467.752C97.9046 467.752 97.0086 466.936 96.8166 465.544H103.089ZM99.1846 462.248C100.465 462.248 101.345 463.048 101.537 464.392H96.8326C97.0246 463.048 97.8886 462.248 99.1846 462.248ZM108.167 469.16C109.239 469.16 110.167 468.648 110.791 467.8V469.064C110.791 470.6 109.927 471.688 108.455 471.688C107.207 471.688 106.343 470.904 106.135 469.704H104.519C104.807 471.768 106.359 473.16 108.455 473.16C110.647 473.16 112.391 471.496 112.391 469.064V461H110.791V462.2C110.167 461.352 109.239 460.84 108.167 460.84C105.975 460.84 104.327 462.552 104.327 465C104.327 467.448 105.975 469.16 108.167 469.16ZM108.359 467.688C106.967 467.688 105.927 466.616 105.927 465C105.927 463.384 106.967 462.312 108.359 462.312C109.751 462.312 110.791 463.384 110.791 465C110.791 466.616 109.751 467.688 108.359 467.688ZM116.299 465.336V461H114.699V465.656C114.699 468.04 115.995 469.16 117.707 469.16C118.747 469.16 119.595 468.664 120.091 467.72V469H121.691V461H120.091V465.336C120.091 466.936 119.371 467.752 118.203 467.752C117.019 467.752 116.299 466.936 116.299 465.336ZM125.676 469V457H124.076V469H125.676ZM130.365 469.16C131.517 469.16 132.541 468.712 133.069 467.656V469H134.637V463.4C134.637 461.544 133.037 460.84 131.309 460.84C129.549 460.84 127.885 461.624 127.885 463.688H129.549C129.549 462.648 130.269 462.12 131.309 462.12C132.285 462.12 133.037 462.552 133.037 463.336C133.037 465.16 127.645 463.432 127.645 466.888C127.645 468.472 128.941 469.16 130.365 469.16ZM129.277 466.792C129.277 465.448 131.709 465.784 133.069 465.128V465.704C133.069 467.096 131.917 467.816 130.685 467.816C129.869 467.816 129.277 467.48 129.277 466.792ZM138.474 461H136.874V469H138.474V464.984C138.474 463.336 139.37 462.504 140.906 462.504C141.226 462.504 141.514 462.552 141.754 462.632V460.888C141.626 460.856 141.434 460.84 141.242 460.84C140.026 460.84 139.05 461.4 138.474 462.44V461Z" fill="#696969"/>
        <path d="M287.784 472V466.56H291.656V472H293.256V460H291.656V465.088H287.784V460H286.184V472H287.784ZM299.078 472.16C301.398 472.16 303.126 470.448 303.126 468C303.126 465.552 301.398 463.84 299.078 463.84C296.758 463.84 295.03 465.552 295.03 468C295.03 470.448 296.758 472.16 299.078 472.16ZM299.078 470.688C297.686 470.688 296.63 469.616 296.63 468C296.63 466.384 297.686 465.312 299.078 465.312C300.47 465.312 301.526 466.384 301.526 468C301.526 469.616 300.47 470.688 299.078 470.688ZM308.839 472L311.559 464H309.895L307.719 470.72L305.543 464H303.879L306.599 472H308.839ZM320.151 468.544C320.167 468.368 320.183 468.192 320.183 468C320.183 465.552 318.519 463.84 316.247 463.84C313.975 463.84 312.311 465.552 312.311 468C312.311 470.448 313.975 472.16 316.247 472.16C318.087 472.16 319.479 471.248 319.975 469.6H318.247C317.927 470.32 317.287 470.752 316.311 470.752C314.967 470.752 314.071 469.936 313.879 468.544H320.151ZM316.247 465.248C317.527 465.248 318.407 466.048 318.599 467.392H313.895C314.087 466.048 314.951 465.248 316.247 465.248ZM323.565 464H321.965V472H323.565V467.984C323.565 466.336 324.461 465.504 325.997 465.504C326.317 465.504 326.605 465.552 326.845 465.632V463.888C326.717 463.856 326.525 463.84 326.333 463.84C325.117 463.84 324.141 464.4 323.565 465.44V464Z" fill="#696969"/>
        <path d="M479.88 460L477.192 472H478.808L479.432 469.056H482.728L483.352 472H484.968L482.28 460H479.88ZM479.752 467.584L481.08 461.28L482.408 467.584H479.752ZM492.02 467.184H493.684C493.492 465.184 491.844 463.84 489.732 463.84C487.444 463.84 485.748 465.552 485.748 468C485.748 470.448 487.444 472.16 489.732 472.16C491.908 472.16 493.588 470.752 493.716 468.64H492.052C491.892 469.968 490.9 470.688 489.732 470.688C488.372 470.688 487.348 469.616 487.348 468C487.348 466.384 488.372 465.312 489.732 465.312C490.884 465.312 491.86 465.968 492.02 467.184ZM497.545 469.264V465.408H499.849V464H497.545V461.632H495.945V464H494.633V465.408H495.945V469.36C495.945 471.536 497.065 472.16 498.601 472.16C499.065 472.16 499.561 472.064 499.849 471.968V470.544C499.577 470.64 499.257 470.688 498.905 470.688C497.977 470.688 497.545 470.256 497.545 469.264ZM502.531 462.256C503.155 462.256 503.587 461.792 503.587 461.184C503.587 460.576 503.155 460.128 502.531 460.128C501.923 460.128 501.475 460.576 501.475 461.184C501.475 461.792 501.923 462.256 502.531 462.256ZM503.331 472V464H501.731V472H503.331ZM509.636 472L512.356 464H510.692L508.516 470.72L506.34 464H504.676L507.396 472H509.636ZM520.948 468.544C520.964 468.368 520.98 468.192 520.98 468C520.98 465.552 519.316 463.84 517.044 463.84C514.772 463.84 513.108 465.552 513.108 468C513.108 470.448 514.772 472.16 517.044 472.16C518.884 472.16 520.276 471.248 520.772 469.6H519.044C518.724 470.32 518.084 470.752 517.108 470.752C515.764 470.752 514.868 469.936 514.676 468.544H520.948ZM517.044 465.248C518.324 465.248 519.204 466.048 519.396 467.392H514.692C514.884 466.048 515.748 465.248 517.044 465.248Z" fill="#696969"/>
        <path d="M263.416 67V59H261.384L257.72 65.384V59H256.184V67H258.216L261.88 60.616V67H263.416ZM271.458 62.184H273.122C272.93 60.184 271.282 58.84 269.17 58.84C266.882 58.84 265.186 60.552 265.186 63C265.186 65.448 266.882 67.16 269.17 67.16C271.346 67.16 273.026 65.752 273.154 63.64H271.49C271.33 64.968 270.338 65.688 269.17 65.688C267.81 65.688 266.786 64.616 266.786 63C266.786 61.384 267.81 60.312 269.17 60.312C270.322 60.312 271.298 60.968 271.458 62.184ZM276.534 67V60.472H280.15V67H281.75V59H274.934V67H276.534ZM287.593 67.16C289.913 67.16 291.641 65.448 291.641 63C291.641 60.552 289.913 58.84 287.593 58.84C285.273 58.84 283.545 60.552 283.545 63C283.545 65.448 285.273 67.16 287.593 67.16ZM287.593 65.688C286.201 65.688 285.145 64.616 285.145 63C285.145 61.384 286.201 60.312 287.593 60.312C288.985 60.312 290.041 61.384 290.041 63C290.041 64.616 288.985 65.688 287.593 65.688ZM300.04 67V59H294.12C294.104 62.6 293.992 63.976 293.8 64.664C293.64 65.272 293.288 65.528 292.856 65.528H292.728V67H293.016C294.296 67 295 66.472 295.336 64.472C295.464 63.608 295.544 62.344 295.576 60.472H298.44V67H300.04ZM304.003 67V63.688H307.843V67H309.443V59H307.843V62.232H304.003V59H302.403V67H304.003ZM319.041 67V59H317.009L313.345 65.384V59H311.809V67H313.841L317.505 60.616V67H319.041ZM324.699 67V60.472H327.291V59H320.507V60.472H323.099V67H324.699ZM335.901 63.544C335.917 63.368 335.933 63.192 335.933 63C335.933 60.552 334.269 58.84 331.997 58.84C329.725 58.84 328.061 60.552 328.061 63C328.061 65.448 329.725 67.16 331.997 67.16C333.837 67.16 335.229 66.248 335.725 64.6H333.997C333.677 65.32 333.037 65.752 332.061 65.752C330.717 65.752 329.821 64.936 329.629 63.544H335.901ZM331.997 60.248C333.277 60.248 334.157 61.048 334.349 62.392H329.645C329.837 61.048 330.701 60.248 331.997 60.248ZM344.337 67V59H338.417C338.401 62.6 338.289 63.976 338.097 64.664C337.937 65.272 337.585 65.528 337.153 65.528H337.025V67H337.313C338.593 67 339.297 66.472 339.633 64.472C339.761 63.608 339.841 62.344 339.873 60.472H342.737V67H344.337ZM348.3 67V63.688H349.644C349.932 65.768 351.548 67.16 353.628 67.16C355.932 67.16 357.66 65.448 357.66 63C357.66 60.552 355.932 58.84 353.628 58.84C351.58 58.84 349.98 60.2 349.66 62.232H348.3V59H346.7V67H348.3ZM353.628 65.688C352.236 65.688 351.196 64.616 351.196 63C351.196 61.384 352.236 60.312 353.628 60.312C355.02 60.312 356.06 61.384 356.06 63C356.06 64.616 355.02 65.688 353.628 65.688Z" fill="#D9B6FF"/>
        <rect x="235.5" y="43.5" width="143" height="38" rx="19" stroke="#D9B6FF"/>
        <path d="M455.416 67V59H453.384L449.72 65.384V59H448.184V67H450.216L453.88 60.616V67H455.416ZM463.458 62.184H465.122C464.93 60.184 463.282 58.84 461.17 58.84C458.882 58.84 457.186 60.552 457.186 63C457.186 65.448 458.882 67.16 461.17 67.16C463.346 67.16 465.026 65.752 465.154 63.64H463.49C463.33 64.968 462.338 65.688 461.17 65.688C459.81 65.688 458.786 64.616 458.786 63C458.786 61.384 459.81 60.312 461.17 60.312C462.322 60.312 463.298 60.968 463.458 62.184ZM468.534 67V60.472H472.15V67H473.75V59H466.934V67H468.534ZM479.593 67.16C481.913 67.16 483.641 65.448 483.641 63C483.641 60.552 481.913 58.84 479.593 58.84C477.273 58.84 475.545 60.552 475.545 63C475.545 65.448 477.273 67.16 479.593 67.16ZM479.593 65.688C478.201 65.688 477.145 64.616 477.145 63C477.145 61.384 478.201 60.312 479.593 60.312C480.985 60.312 482.041 61.384 482.041 63C482.041 64.616 480.985 65.688 479.593 65.688ZM492.04 67V59H486.12C486.104 62.6 485.992 63.976 485.8 64.664C485.64 65.272 485.288 65.528 484.856 65.528H484.728V67H485.016C486.296 67 487 66.472 487.336 64.472C487.464 63.608 487.544 62.344 487.576 60.472H490.44V67H492.04ZM496.003 67V63.688H499.843V67H501.443V59H499.843V62.232H496.003V59H494.403V67H496.003ZM511.041 67V59H509.009L505.345 65.384V59H503.809V67H505.841L509.505 60.616V67H511.041ZM516.699 67V60.472H519.291V59H512.507V60.472H515.099V67H516.699ZM527.901 63.544C527.917 63.368 527.933 63.192 527.933 63C527.933 60.552 526.269 58.84 523.997 58.84C521.725 58.84 520.061 60.552 520.061 63C520.061 65.448 521.725 67.16 523.997 67.16C525.837 67.16 527.229 66.248 527.725 64.6H525.997C525.677 65.32 525.037 65.752 524.061 65.752C522.717 65.752 521.821 64.936 521.629 63.544H527.901ZM523.997 60.248C525.277 60.248 526.157 61.048 526.349 62.392H521.645C521.837 61.048 522.701 60.248 523.997 60.248ZM536.337 67V59H530.417C530.401 62.6 530.289 63.976 530.097 64.664C529.937 65.272 529.585 65.528 529.153 65.528H529.025V67H529.313C530.593 67 531.297 66.472 531.633 64.472C531.761 63.608 531.841 62.344 531.873 60.472H534.737V67H536.337ZM540.3 67V63.688H541.644C541.932 65.768 543.548 67.16 545.628 67.16C547.932 67.16 549.66 65.448 549.66 63C549.66 60.552 547.932 58.84 545.628 58.84C543.58 58.84 541.98 60.2 541.66 62.232H540.3V59H538.7V67H540.3ZM545.628 65.688C544.236 65.688 543.196 64.616 543.196 63C543.196 61.384 544.236 60.312 545.628 60.312C547.02 60.312 548.06 61.384 548.06 63C548.06 64.616 547.02 65.688 545.628 65.688Z" fill="#AD61FF"/>
        <rect x="427.5" y="43.5" width="143" height="38" rx="19" stroke="#AD61FF"/>
        <path d="M114 124L109 121.113V126.887L114 124ZM111 135.5C107.962 135.5 105.5 133.038 105.5 130H104.5C104.5 133.59 107.41 136.5 111 136.5V135.5ZM105.5 130C105.5 126.962 107.962 124.5 111 124.5V123.5C107.41 123.5 104.5 126.41 104.5 130H105.5Z" fill="#696969"/>
        <path d="M114 136L119 138.887V133.113L114 136ZM117 124.5C120.038 124.5 122.5 126.962 122.5 130H123.5C123.5 126.41 120.59 123.5 117 123.5V124.5ZM122.5 130C122.5 133.038 120.038 135.5 117 135.5V136.5C120.59 136.5 123.5 133.59 123.5 130H122.5Z" fill="#696969"/>
        <path d="M306 124L301 121.113V126.887L306 124ZM303 135.5C299.962 135.5 297.5 133.038 297.5 130H296.5C296.5 133.59 299.41 136.5 303 136.5V135.5ZM297.5 130C297.5 126.962 299.962 124.5 303 124.5V123.5C299.41 123.5 296.5 126.41 296.5 130H297.5Z" fill="#ACACAC"/>
        <path d="M306 136L311 138.887V133.113L306 136ZM309 124.5C312.038 124.5 314.5 126.962 314.5 130H315.5C315.5 126.41 312.59 123.5 309 123.5V124.5ZM314.5 130C314.5 133.038 312.038 135.5 309 135.5V136.5C312.59 136.5 315.5 133.59 315.5 130H314.5Z" fill="#ACACAC"/>
        <path d="M499 124L494 121.113V126.887L499 124ZM496 135.5C492.962 135.5 490.5 133.038 490.5 130H489.5C489.5 133.59 492.41 136.5 496 136.5V135.5ZM490.5 130C490.5 126.962 492.962 124.5 496 124.5V123.5C492.41 123.5 489.5 126.41 489.5 130H490.5Z" fill="white"/>
        <path d="M499 136L504 138.887V133.113L499 136ZM502 124.5C505.038 124.5 507.5 126.962 507.5 130H508.5C508.5 126.41 505.59 123.5 502 123.5V124.5ZM507.5 130C507.5 133.038 505.038 135.5 502 135.5V136.5C505.59 136.5 508.5 133.59 508.5 130H507.5Z" fill="white"/>
        <path d="M316 190L311 187.113V192.887L316 190ZM306.663 187.083L306.209 187.292L306.663 187.083ZM303.837 180.917L303.382 181.125L303.837 180.917ZM297 178.5H299.292V177.5H297V178.5ZM303.382 181.125L306.209 187.292L307.118 186.875L304.291 180.708L303.382 181.125ZM311.208 190.5H311.5V189.5H311.208V190.5ZM306.209 187.292C307.105 189.247 309.058 190.5 311.208 190.5V189.5C309.449 189.5 307.851 188.474 307.118 186.875L306.209 187.292ZM299.292 178.5C301.051 178.5 302.649 179.526 303.382 181.125L304.291 180.708C303.395 178.753 301.442 177.5 299.292 177.5V178.5Z" fill="#ACACAC"/>
        <path d="M316 178L311 180.887V175.113L316 178ZM306.663 180.917L306.209 180.708L306.663 180.917ZM303.837 187.083L303.382 186.875L303.837 187.083ZM297 189.5H299.292V190.5H297V189.5ZM303.382 186.875L306.209 180.708L307.118 181.125L304.291 187.292L303.382 186.875ZM311.208 177.5H311.5V178.5H311.208V177.5ZM306.209 180.708C307.105 178.753 309.058 177.5 311.208 177.5V178.5C309.449 178.5 307.851 179.526 307.118 181.125L306.209 180.708ZM299.292 189.5C301.051 189.5 302.649 188.474 303.382 186.875L304.291 187.292C303.395 189.247 301.442 190.5 299.292 190.5V189.5Z" fill="#ACACAC"/>
        <path d="M124 190L119 187.113V192.887L124 190ZM114.663 187.083L114.209 187.292L114.663 187.083ZM111.837 180.917L111.382 181.125L111.837 180.917ZM105 178.5H107.292V177.5H105V178.5ZM111.382 181.125L114.209 187.292L115.118 186.875L112.291 180.708L111.382 181.125ZM119.208 190.5H119.5V189.5H119.208V190.5ZM114.209 187.292C115.105 189.247 117.058 190.5 119.208 190.5V189.5C117.449 189.5 115.851 188.474 115.118 186.875L114.209 187.292ZM107.292 178.5C109.051 178.5 110.649 179.526 111.382 181.125L112.291 180.708C111.395 178.753 109.442 177.5 107.292 177.5V178.5Z" fill="#696969"/>
        <path d="M124 178L119 180.887V175.113L124 178ZM114.663 180.917L114.209 180.708L114.663 180.917ZM111.837 187.083L111.382 186.875L111.837 187.083ZM105 189.5H107.292V190.5H105V189.5ZM111.382 186.875L114.209 180.708L115.118 181.125L112.291 187.292L111.382 186.875ZM119.208 177.5H119.5V178.5H119.208V177.5ZM114.209 180.708C115.105 178.753 117.058 177.5 119.208 177.5V178.5C117.449 178.5 115.851 179.526 115.118 181.125L114.209 180.708ZM107.292 189.5C109.051 189.5 110.649 188.474 111.382 186.875L112.291 187.292C111.395 189.247 109.442 190.5 107.292 190.5V189.5Z" fill="#696969"/>
        <path d="M306 233.256H306.022C306.953 232.442 309.413 231.166 311.613 232.767C314.967 235.209 311.902 240.5 306.022 244H306M306 233.256H305.978C305.047 232.442 302.587 231.166 300.387 232.767C297.033 235.209 300.098 240.5 305.978 244H306" stroke="#ACACAC"/>
        <path d="M509 190L504 187.113V192.887L509 190ZM499.663 187.083L499.209 187.292L499.663 187.083ZM496.837 180.917L496.382 181.125L496.837 180.917ZM490 178.5H492.292V177.5H490V178.5ZM496.382 181.125L499.209 187.292L500.118 186.875L497.291 180.708L496.382 181.125ZM504.208 190.5H504.5V189.5H504.208V190.5ZM499.209 187.292C500.105 189.247 502.058 190.5 504.208 190.5V189.5C502.449 189.5 500.851 188.474 500.118 186.875L499.209 187.292ZM492.292 178.5C494.051 178.5 495.649 179.526 496.382 181.125L497.291 180.708C496.395 178.753 494.442 177.5 492.292 177.5V178.5Z" fill="white"/>
        <path d="M509 178L504 180.887V175.113L509 178ZM499.663 180.917L499.209 180.708L499.663 180.917ZM496.837 187.083L496.382 186.875L496.837 187.083ZM490 189.5H492.292V190.5H490V189.5ZM496.382 186.875L499.209 180.708L500.118 181.125L497.291 187.292L496.382 186.875ZM504.208 177.5H504.5V178.5H504.208V177.5ZM499.209 180.708C500.105 178.753 502.058 177.5 504.208 177.5V178.5C502.449 178.5 500.851 179.526 500.118 181.125L499.209 180.708ZM492.292 189.5C494.051 189.5 495.649 188.474 496.382 186.875L497.291 187.292C496.395 189.247 494.442 190.5 492.292 190.5V189.5Z" fill="white"/>
        <path d="M299 286L313 298.5" stroke="#ACACAC"/>
        <path d="M306.344 288.256H306.366C307.297 287.442 309.757 286.166 311.957 287.767C315.311 290.209 312.246 295.5 306.366 299H306.344M306.344 288.256H306.322C305.391 287.442 302.931 286.166 300.731 287.767C297.377 290.209 300.442 295.5 306.322 299H306.344" stroke="#ACACAC"/>
        <path d="M114 233.256H114.022C114.953 232.442 117.413 231.166 119.613 232.767C122.967 235.209 119.902 240.5 114.022 244H114M114 233.256H113.978C113.047 232.442 110.587 231.166 108.387 232.767C105.033 235.209 108.098 240.5 113.978 244H114" stroke="#696969"/>
        <path d="M499.022 244C504.902 240.5 507.967 235.209 504.613 232.767C502.413 231.166 499.953 232.442 499.022 233.256H499H499H498.978C498.047 232.442 495.587 231.166 493.387 232.767C490.033 235.209 493.098 240.5 498.978 244H499H499H499.022Z" fill="#696969"/>
        <path d="M499 233.256H499.022C499.953 232.442 502.413 231.166 504.613 232.767C507.967 235.209 504.902 240.5 499.022 244H499M499 233.256H498.978C498.047 232.442 495.587 231.166 493.387 232.767C490.033 235.209 493.098 240.5 498.978 244H499" stroke="white"/>
        <path d="M107 286L121 298.5" stroke="#696969"/>
        <path d="M114.344 288.256H114.366C115.297 287.442 117.757 286.166 119.957 287.767C123.311 290.209 120.246 295.5 114.366 299H114.344M114.344 288.256H114.322C113.391 287.442 110.931 286.166 108.731 287.767C105.377 290.209 108.442 295.5 114.322 299H114.344" stroke="#696969"/>
        <path d="M499.366 299C505.246 295.5 508.311 290.209 504.957 287.767C502.757 286.166 500.297 287.442 499.366 288.256H499.344H499.344H499.322C498.391 287.442 495.931 286.166 493.731 287.767C490.377 290.209 493.442 295.5 499.322 299H499.344H499.344H499.366Z" fill="#696969"/>
        <path d="M499.344 288.256H499.366C500.297 287.442 502.757 286.166 504.957 287.767C508.311 290.209 505.246 295.5 499.366 299H499.344M499.344 288.256H499.322C498.391 287.442 495.931 286.166 493.731 287.767C490.377 290.209 493.442 295.5 499.322 299H499.344" stroke="white"/>
        <path d="M492 286L506 298.5" stroke="white"/>
        <path d="M124 347L109 337.474L109 356.526L124 347Z" fill="#D9D9D9"/>
        <path d="M509 406L494 396.474L494 415.526L509 406Z" fill="#D9D9D9"/>
        <rect x="109" y="395" width="5" height="19" fill="#D9D9D9"/>
        <rect x="119" y="395" width="5" height="19" fill="#D9D9D9"/>
        <path d="M316 347L301 337.474L301 356.526L316 347Z" fill="#696969"/>
        <rect x="492" y="336" width="5" height="19" fill="#D9D9D9"/>
        <rect x="502" y="336" width="5" height="19" fill="#D9D9D9"/>
        <rect x="299" y="395" width="5" height="19" fill="#696969"/>
        <rect x="309" y="395" width="5" height="19" fill="#696969"/>
    </symbol>
    <symbol id='logout' width="40" height="40" viewBox="0 0 40 40" fill="none" xmlns="http://www.w3.org/2000/svg">
        <path d="M25.6711 16.046V14.7419C25.6711 13.2276 24.4435 12 22.9292 12H16.7419C15.2276 12 14 13.2276 14 14.7419V26.0645C14 27.5788 15.2276 28.8065 16.7419 28.8065H22.9292C24.4435 28.8065 25.6711 27.5788 25.6711 26.0645V24.6048M18.3572 20.3254H33.2963M33.2963 20.3254L30.1062 23.5155M33.2963 20.3254L30.1062 17.1353" stroke="white" stroke-linecap="round" stroke-linejoin="round"/>
        <circle cx="20" cy="20" r="19.5" stroke="white"/>
    </symbol> 
    <symbol ></symbol>
</svg>